<svg xmlns="http://www.w3.org/2000/svg" viewBox="0 0 227.32 467.99"><defs><style>.cls-1{fill:#fdca38;}.cls-2{fill:#eca645;}.cls-3{fill:#669833;}</style></defs><g id="Capa_2" data-name="Capa 2"><g id="Pantalla_Login" data-name="Pantalla Login"><path id="amarillo" class="cls-1" d="M143.64,147,141,149.65a749.38,749.38,0,0,0-69,79.14C42,198.71,19.81,181.88,18.73,181.06L7.49,172.54,0,178.21V6.05c4.79-4,7.49-6,7.49-6S81.5,56.54,143.64,147Z"/><path id="naranja" class="cls-2" d="M227.32,387.84c0,2.59,0,5-.2,7.56a282.63,282.63,0,0,1-7.2,52.25c-32.15-86-88.62-156.86-132.33-202.77-.8-.86-1.6-1.71-2.42-2.55a732.64,732.64,0,0,1,69-79.5c38.06,59.59,69.75,132.33,72.73,212.26C227.12,379.26,227.32,383.46,227.32,387.84Z"/><path id="verde" class="cls-3" d="M207.35,468H0V201.9c4.79-3.94,7.49-6,7.49-6S30.24,213.14,60.9,244q3.24,3.27,6.62,6.77,3.21,3.36,6.54,6.88C119.94,305.88,177.75,379.54,207.35,468Z"/></g></g></svg>