<svg xmlns="http://www.w3.org/2000/svg" viewBox="0 0 147.2 225.44"><defs><style>.cls-1{fill:#fdca38;}.cls-2{fill:#eca645;}.cls-3{fill:#a0c421;}.cls-4{fill:#669833;}</style></defs><g id="Capa_2" data-name="Capa 2"><g id="Pantalla_de_Carga" data-name="Pantalla de Carga"><g id="Logotipo"><path class="cls-1" d="M118.28,50.13a251.14,251.14,0,0,0-23.1,26.51,188.41,188.41,0,0,0-17.85-16l-3.76-2.86-3.78,2.86A192.7,192.7,0,0,0,52,76.62a249.59,249.59,0,0,0-23-26.43L28,49.3A237.06,237.06,0,0,1,73.57,0a237.3,237.3,0,0,1,45.6,49.24Z"/><path class="cls-2" d="M147.2,129.91c0,.87,0,1.67-.07,2.54a94.45,94.45,0,0,1-2.41,17.5C134,121.14,115,97.4,100.4,82c-.27-.29-.54-.58-.82-.86A245.74,245.74,0,0,1,122.7,54.54c12.75,20,23.36,44.33,24.36,71.1C147.13,127,147.2,128.44,147.2,129.91Z"/><path class="cls-3" d="M46.72,82C32.07,97.47,13.15,121.31,2.4,150.13A91.19,91.19,0,0,1,0,129.91c0-1.47.06-2.87.13-4.27,1.07-26.71,11.55-51.07,24.36-71A238.79,238.79,0,0,1,47.55,81.16Z"/><path class="cls-4" d="M141.72,160.56c-9.74,29.17-31.64,57.8-58.08,63.75-1.08.24-2.17.44-3.27.61s-2.25.31-3.39.39-2.22.13-3.35.13-2.4-.05-3.59-.15-2.26-.22-3.38-.4-2.17-.4-3.24-.65c-26.44-5.94-48.33-34.18-58-63.49,9.48-31.44,29.84-57.54,45.86-74.43L53.46,84l2.22-2.27A187.33,187.33,0,0,1,73.57,65.62,189.61,189.61,0,0,1,91.45,81.74c.73.74,1.47,1.49,2.22,2.27l2.19,2.31C111.88,103.14,132.25,129.24,141.72,160.56Z"/></g></g></g></svg>